<svg xmlns="http://www.w3.org/2000/svg" version="1.1" xmlns:xlink="http://www.w3.org/1999/xlink" xmlns:svgjs="http://svgjs.dev/svgjs" width="80" height="106"><svg width="80" height="106" viewBox="0 0 80 106" fill="none" xmlns="http://www.w3.org/2000/svg">
<path fill-rule="evenodd" clip-rule="evenodd" d="M49.536 105.6H29.824C28.2027 105.6 27.008 105.216 26.24 104.448C25.5573 103.765 25.216 102.613 25.216 100.992V93.952C15.3173 92.5013 8.61867 89.5573 5.12 85.12C1.70667 80.5973 0 75.136 0 68.736V26.24C0 22.3147 0.554667 18.7733 1.664 15.616C2.85867 12.3733 4.90667 9.6 7.808 7.296C10.7947 4.992 14.8907 3.2 20.096 1.92C25.3013 0.639999 31.872 0 39.808 0C47.744 0 54.272 0.639999 59.392 1.92C64.5973 3.2 68.6507 4.992 71.552 7.296C74.5387 9.6 76.5867 12.3733 77.696 15.616C78.8907 18.7733 79.488 22.3147 79.488 26.24V68.736C79.488 71.9787 79.104 75.008 78.336 77.824C77.568 80.5547 76.2453 82.9867 74.368 85.12C72.4907 87.2533 69.888 89.088 66.56 90.624C63.3173 92.16 59.1787 93.2693 54.144 93.952V100.992C54.144 102.613 53.76 103.765 52.992 104.448C52.3093 105.216 51.1573 105.6 49.536 105.6ZM48.576 52.08V19.52C48.576 19.0134 48.3271 18.6534 47.8294 18.44C47.3871 18.2 46.6405 18.08 45.5898 18.08H33.5622C32.5115 18.08 31.7373 18.2 31.2396 18.44C30.7972 18.6534 30.576 19.0134 30.576 19.52V52.08H24.1669C23.5113 52.08 23.04 52.4259 22.7532 53.1177C22.4663 53.8479 22.5278 54.5205 22.9376 55.1355L36.7064 76.2929C37.0752 76.8309 37.485 77.2537 37.9358 77.5612C38.3456 77.9071 38.8783 78.08 39.534 78.08C40.1896 78.08 40.7428 77.9071 41.1936 77.5612C41.6444 77.2537 42.0541 76.8309 42.423 76.2929L56.1918 55.1355C56.6016 54.5205 56.6836 53.8479 56.4377 53.1177C56.1508 52.4259 55.6591 52.08 54.9625 52.08H48.576Z" fill="black"></path>
</svg><style>@media (prefers-color-scheme: light) { :root { filter: none; } }
@media (prefers-color-scheme: dark) { :root { filter: invert(100%); } }
</style></svg>